<mxfile host="app.diagrams.net" agent="Mozilla/5.0 (Windows NT 10.0; Win64; x64) AppleWebKit/537.36 (KHTML, like Gecko) Chrome/133.0.0.0 Safari/537.36" version="26.0.16">
  <diagram name="ページ1" id="5UOymyXWvcUN4H8S1Dse">
    <mxGraphModel dx="794" dy="446" grid="1" gridSize="10" guides="1" tooltips="1" connect="1" arrows="1" fold="1" page="1" pageScale="1" pageWidth="827" pageHeight="1169" math="0" shadow="0">
      <root>
        <mxCell id="0" />
        <mxCell id="1" parent="0" />
        <mxCell id="jKKY8cHIDh226AJpTfRV-1" value="STS3032サーボモータ" style="swimlane;" vertex="1" parent="1">
          <mxGeometry x="580" y="270" width="150" height="130" as="geometry" />
        </mxCell>
        <mxCell id="jKKY8cHIDh226AJpTfRV-2" value="×4" style="text;html=1;align=center;verticalAlign=middle;whiteSpace=wrap;rounded=0;" vertex="1" parent="jKKY8cHIDh226AJpTfRV-1">
          <mxGeometry x="120" y="100" width="30" height="30" as="geometry" />
        </mxCell>
        <mxCell id="jKKY8cHIDh226AJpTfRV-4" value="M5stack UnitV2カメラ" style="swimlane;" vertex="1" parent="1">
          <mxGeometry x="336" y="70" width="156" height="130" as="geometry" />
        </mxCell>
        <mxCell id="jKKY8cHIDh226AJpTfRV-6" value="STM32F303K8" style="swimlane;" vertex="1" parent="1">
          <mxGeometry x="336" y="270" width="156" height="130" as="geometry" />
        </mxCell>
        <mxCell id="jKKY8cHIDh226AJpTfRV-7" value="IMU" style="swimlane;" vertex="1" parent="1">
          <mxGeometry x="130" y="270" width="156" height="130" as="geometry" />
        </mxCell>
        <mxCell id="jKKY8cHIDh226AJpTfRV-8" value="" style="endArrow=classic;html=1;rounded=0;" edge="1" parent="1">
          <mxGeometry width="50" height="50" relative="1" as="geometry">
            <mxPoint x="430" y="260" as="sourcePoint" />
            <mxPoint x="430" y="210" as="targetPoint" />
          </mxGeometry>
        </mxCell>
        <mxCell id="jKKY8cHIDh226AJpTfRV-11" value="" style="edgeStyle=orthogonalEdgeStyle;rounded=0;orthogonalLoop=1;jettySize=auto;html=1;" edge="1" parent="1">
          <mxGeometry relative="1" as="geometry">
            <mxPoint x="390" y="210" as="sourcePoint" />
            <mxPoint x="390" y="260" as="targetPoint" />
          </mxGeometry>
        </mxCell>
        <mxCell id="jKKY8cHIDh226AJpTfRV-9" value="自己位置推定で得られた現在位置の座標" style="text;html=1;align=center;verticalAlign=middle;whiteSpace=wrap;rounded=0;" vertex="1" parent="1">
          <mxGeometry x="442" y="210" width="138" height="40" as="geometry" />
        </mxCell>
        <mxCell id="jKKY8cHIDh226AJpTfRV-10" value="ショートカット経路" style="text;html=1;align=center;verticalAlign=middle;whiteSpace=wrap;rounded=0;" vertex="1" parent="1">
          <mxGeometry x="240" y="210" width="138" height="40" as="geometry" />
        </mxCell>
      </root>
    </mxGraphModel>
  </diagram>
</mxfile>
